<svg width="16" height="18" viewBox="0 0 16 18" fill="none" xmlns="http://www.w3.org/2000/svg">
<mask id="mask0_15594_60332" style="mask-type:alpha" maskUnits="userSpaceOnUse" x="0" y="2" width="16" height="16">
<path fill-rule="evenodd" clip-rule="evenodd" d="M8 18C12.4183 18 16 14.4183 16 10C16 5.58172 12.4183 2 8 2C3.58172 2 0 5.58172 0 10C0 14.4183 3.58172 18 8 18Z" fill="#C4C4C4"/>
</mask>
<g mask="url(#mask0_15594_60332)">
<rect y="2" width="16" height="16" fill="#31B74F"/>
</g>
<g filter="url(#filter0_d_15594_60332)">
<path fill-rule="evenodd" clip-rule="evenodd" d="M12.2594 6.65393C12.5155 6.92357 12.5046 7.3498 12.235 7.60595L6.84775 12.7238C6.58299 12.9753 6.166 12.97 5.90778 12.7117L3.7529 10.5569C3.48992 10.2939 3.48992 9.86751 3.7529 9.60453C4.01588 9.34155 4.44225 9.34155 4.70523 9.60453L6.396 11.2953L11.3073 6.62952C11.577 6.37337 12.0032 6.3843 12.2594 6.65393Z" fill="white"/>
</g>
<defs>
<filter id="filter0_d_15594_60332" x="1.55566" y="5.44434" width="12.8887" height="10.4648" filterUnits="userSpaceOnUse" color-interpolation-filters="sRGB">
<feFlood flood-opacity="0" result="BackgroundImageFix"/>
<feColorMatrix in="SourceAlpha" type="matrix" values="0 0 0 0 0 0 0 0 0 0 0 0 0 0 0 0 0 0 127 0" result="hardAlpha"/>
<feOffset dy="1"/>
<feGaussianBlur stdDeviation="1"/>
<feColorMatrix type="matrix" values="0 0 0 0 0.266667 0 0 0 0 0.337255 0 0 0 0 0.423529 0 0 0 0.15 0"/>
<feBlend mode="normal" in2="BackgroundImageFix" result="effect1_dropShadow_15594_60332"/>
<feBlend mode="normal" in="SourceGraphic" in2="effect1_dropShadow_15594_60332" result="shape"/>
</filter>
</defs>
</svg>
