<svg width="12" height="12" viewBox="0 0 12 12" fill="none" xmlns="http://www.w3.org/2000/svg">
<path d="M6.10873 2.20821L6.10876 2.20828L6.75657 4.2016L6.75664 4.20183C6.80086 4.33746 6.88683 4.45563 7.00225 4.53946C7.11767 4.62329 7.25664 4.66849 7.39929 4.6686H7.39947H9.49558C9.66585 4.6686 9.73802 4.88706 9.59942 4.98824C9.59941 4.98824 9.59941 4.98825 9.5994 4.98825C9.59934 4.9883 9.59927 4.98835 9.59921 4.98839L7.90377 6.21989L7.90369 6.21994C7.78815 6.30394 7.70217 6.42235 7.65806 6.5582C7.61396 6.69404 7.61397 6.84035 7.65811 6.97617C7.65812 6.9762 7.65812 6.97622 7.65813 6.97624L8.30549 8.9695L8.30554 8.96963C8.35858 9.13266 8.17224 9.26723 8.03449 9.16695L8.03428 9.1668L6.33871 7.93521C6.33868 7.93519 6.33866 7.93517 6.33863 7.93515C6.22305 7.85115 6.08383 7.80591 5.94094 7.80591C5.79806 7.80591 5.65884 7.85115 5.54326 7.93515C5.54323 7.93517 5.54321 7.93519 5.54318 7.93521L3.84761 9.1668L3.8474 9.16695C3.70976 9.26715 3.52334 9.13239 3.57633 8.9697L3.57639 8.9695L4.22376 6.97624C4.22376 6.97622 4.22377 6.9762 4.22378 6.97617C4.26792 6.84035 4.26793 6.69404 4.22383 6.5582C4.17972 6.42234 4.09373 6.30394 3.9782 6.21994L3.97812 6.21989L2.28256 4.9883C2.14417 4.88769 2.21549 4.6686 2.38631 4.6686H4.48192C4.48194 4.6686 4.48197 4.6686 4.48199 4.6686C4.62473 4.66862 4.76383 4.62349 4.87937 4.53966C4.99492 4.45582 5.08099 4.33757 5.12525 4.20183L5.12532 4.2016L5.77308 2.20844C5.77308 2.20843 5.77309 2.20841 5.77309 2.2084C5.82623 2.04537 6.05615 2.04623 6.10873 2.20821Z" stroke="#6B727E" stroke-width="0.5" stroke-linecap="round" stroke-linejoin="round"/>
</svg>
